<svg xmlns="http://www.w3.org/2000/svg" viewBox="0 0 321 34.593"><defs><clipPath id="a"><path data-name="Rectangle 28769" fill="none" d="M0 0h321v34.593H0z"/></clipPath><clipPath id="b"><path data-name="Rectangle 28771" fill="none" d="M0 0h64.882v16.14H0z"/></clipPath><linearGradient id="c" x1=".008" y1=".5" x2=".992" y2=".5" gradientUnits="objectBoundingBox"><stop offset=".05" stop-color="#ff1d25"/><stop offset=".35" stop-color="#a0328c"/><stop offset=".45" stop-color="#7040a4"/><stop offset=".55" stop-color="#4359c7"/><stop offset=".7" stop-color="#0082e6"/></linearGradient></defs><g data-name="Group 31912"><g data-name="Group 31905"><g data-name="Group 31904" clip-path="url(#a)"><path data-name="Path 13858" d="M303.7 34.593H17.3A17.3 17.3 0 0 1 17.3 0h286.4a17.3 17.3 0 0 1 0 34.593" fill="#fff"/></g></g><g data-name="Group 31907"><g data-name="Group 31906" clip-path="url(#b)" transform="translate(244.251 9.574)"><path data-name="Path 13859" d="M57.115 7.925h-3.356V5.233a1.351 1.351 0 0 1 1.347-1.351 1.942 1.942 0 0 0 0-3.883 5.233 5.233 0 0 0-5.221 5.233v2.913a1.943 1.943 0 0 0 0 3.448v2.608a1.937 1.937 0 1 0 3.873 0v-2.393h3.356a1.942 1.942 0 0 0 0-3.883Z" fill="red"/><path data-name="Path 13860" d="M61.779 9.686c-1.713 0-3.1-.979-3.1-2.186s1.389-2.186 3.1-2.186 3.1.979 3.1 2.186-1.389 2.186-3.1 2.186m.469-7.177a1.609 1.609 0 0 0-.432 1.477 1.6 1.6 0 0 0 1.907-1.911 1.6 1.6 0 0 0-1.475.433m-.938.868a1.6 1.6 0 0 0-1.475-.433 1.6 1.6 0 0 0 1.907 1.912 1.606 1.606 0 0 0-.431-1.479Z" fill="green"/><path data-name="Path 13861" d="M0 12.487v-7.58h6.04v1.884H2.356V8.22H5.37v1.776H2.356v2.491Z" fill="#333"/><path data-name="Path 13862" d="M6.482 12.487V7.041h1.966a3.665 3.665 0 0 1-.422 1.754h.822a2.916 2.916 0 0 1 .524-1.44 1.314 1.314 0 0 1 1.075-.466 2.68 2.68 0 0 1 .519.044v2.068a4.278 4.278 0 0 0-.778-.076 1.441 1.441 0 0 0-1.113.379 1.729 1.729 0 0 0-.346 1.192v1.992Z" fill="#333"/><path data-name="Path 13863" d="M11.27 9.736a2.749 2.749 0 0 1 .837-2.079 2.989 2.989 0 0 1 2.156-.8 2.955 2.955 0 0 1 2.171.769 2.792 2.792 0 0 1 .778 2.079 4.044 4.044 0 0 1-.033.477h-3.738q.011 1.039.832 1.039a1.029 1.029 0 0 0 .94-.747l2.042.563a2.945 2.945 0 0 1-2.982 1.635 3.031 3.031 0 0 1-2.21-.775 2.879 2.879 0 0 1-.794-2.16m2.2-.639h1.577a.967.967 0 0 0-.221-.644.718.718 0 0 0-.253-.178.708.708 0 0 0-.3-.055q-.735 0-.8.877" fill="#333"/><path data-name="Path 13864" d="m17.654 10.961 2.031-.271q.065.672.853.671.648 0 .648-.412 0-.335-.594-.455l-.66-.119a3.77 3.77 0 0 1-1.566-.585 1.375 1.375 0 0 1-.465-1.148 1.526 1.526 0 0 1 .686-1.288 3.254 3.254 0 0 1 1.939-.5 3.5 3.5 0 0 1 1.842.406 1.675 1.675 0 0 1 .8 1.045l-1.977.39a.793.793 0 0 0-.789-.6q-.54 0-.54.39 0 .314.681.412l.788.141q2.021.358 2.021 1.765a1.564 1.564 0 0 1-.74 1.359 3.762 3.762 0 0 1-2.123.5 3.5 3.5 0 0 1-2.015-.487 1.864 1.864 0 0 1-.827-1.224" fill="#333"/><path data-name="Path 13865" d="M24.093 12.487v-7.58h2.182v1.051a4.1 4.1 0 0 1-.616 2.329h.821q.378-1.43 1.61-1.429a1.688 1.688 0 0 1 1.3.52 2.1 2.1 0 0 1 .481 1.484v3.628h-2.248V9.22q0-.715-.616-.714-.67 0-.67.974v3.011Z" fill="#333"/><path data-name="Path 13866" d="M31.408 12.488V8.502h-.962V7.041h.962V6.51a1.515 1.515 0 0 1 1.707-1.722h1.934v1.483h-1.111a.334.334 0 0 0-.378.379v.39h1.232v1.462h-1.234v3.985Z" fill="#333"/><path data-name="Path 13867" d="M35.341 10.691v-3.65h2.248v3.249a.818.818 0 0 0 .162.547.547.547 0 0 0 .442.19.565.565 0 0 0 .492-.26 1.207 1.207 0 0 0 .178-.693V7.042h2.215v5.447H39.06a2.664 2.664 0 0 1 .4-1.18h-.789a1.658 1.658 0 0 1-1.675 1.364 1.517 1.517 0 0 1-1.215-.509 2.2 2.2 0 0 1-.437-1.474" fill="#333"/><path data-name="Rectangle 28770" fill="#333" d="M42.126 4.907h2.194v7.58h-2.194z"/></g></g><g data-name="Group 31909"><g data-name="Group 31908" clip-path="url(#a)"><path data-name="Path 13868" d="M201.662 10.548h-9.464v14.389h9.464a4.925 4.925 0 0 0 4.926-4.925v-4.539a4.925 4.925 0 0 0-4.926-4.925m-3.226 10.673a1.434 1.434 0 0 1-1.434 1.434h-1.434v-2.869h1.434a1.435 1.435 0 0 1 1.434 1.435Zm-1.434-2.044h-1.434v-2.869h1.434a1.435 1.435 0 0 1 0 2.869m0-3.478h-1.434v-2.87h1.434a1.435 1.435 0 0 1 0 2.869m3.3 3.478h-1.435v-2.868h1.435a1.435 1.435 0 0 1 0 2.869m1.478-3.478h-2.913v-2.87h2.913a1.435 1.435 0 0 1 0 2.869"/><path data-name="Path 13869" d="M220.524 19.947h-1.936l-.2 2.123h-1.112l.669-7.076c.084-.827.287-1.763 1.613-1.763s1.53.936 1.613 1.763l.669 7.076h-1.111Zm-1.828-1.079h1.721l-.346-3.742c-.06-.636-.191-.791-.514-.791s-.454.156-.514.791Zm5.27 3.2v-3.654c-.884-.216-1.1-1-1.171-1.7l-.311-3.3h1.123l.287 3.07c.06.636.215.839.646.839s.585-.2.645-.839l.287-3.07h1.123l-.311 3.3a1.689 1.689 0 0 1-1.183 1.7v3.658Zm7.851-2.015a2.14 2.14 0 1 1-4.278 0v-.3h1.123v.168c0 .7.286 1.223 1.016 1.223s1-.527 1-1.223v-.06c0-.636-.1-.719-1.255-1.355l-.789-.432a1.7 1.7 0 0 1-1.075-1.727v-.923a2.128 2.128 0 1 1 4.254 0v1.007h-1.123v-.876c0-.7-.287-1.223-1-1.223s-.991.527-.991 1.223v.444c0 .636.024.78 1.111 1.355l.717.384c.777.42 1.291.815 1.291 1.715ZM214.5 13.409h-2.4v8.658h2.4a1.662 1.662 0 0 0 1.662-1.662v-5.329a1.662 1.662 0 0 0-1.662-1.662m.527 6.839a.739.739 0 0 1-.739.739h-1.053v-6.5h1.053a.739.739 0 0 1 .739.74Z"/><path data-name="Path 13870" d="M153.483 22.072v-8.658h3.2v1.079h-2.067v3.13h1.888v1.079h-1.888v3.37Zm7.17-2.122h-1.935l-.2 2.122h-1.111l.669-7.075c.084-.828.287-1.763 1.613-1.763s1.529.935 1.613 1.763l.669 7.075h-1.111Zm-1.828-1.08h1.721l-.346-3.741c-.06-.636-.191-.792-.514-.792s-.454.156-.514.792Zm8.258 1.187a2.14 2.14 0 1 1-4.278 0v-.3h1.123v.168c0 .7.287 1.223 1.016 1.223s1-.527 1-1.223v-.06c0-.636-.1-.72-1.255-1.356l-.789-.431a1.7 1.7 0 0 1-1.075-1.727v-.924a2.128 2.128 0 1 1 4.254 0v1.009h-1.123v-.876c0-.7-.287-1.223-1-1.223s-.992.528-.992 1.223v.444c0 .636.024.779 1.112 1.355l.717.383c.777.42 1.291.815 1.291 1.715Zm4.421 2.015v-3.37h-2.031v3.37h-1.135v-8.658h1.135v4.209h2.031v-4.209h1.135v8.658Zm2.593-8.658h1.135v8.658h-1.135Zm6.775 6.643a2.14 2.14 0 1 1-4.278 0v-4.629a2.14 2.14 0 1 1 4.278 0Zm-1.135-4.5c0-.7-.287-1.223-1-1.223s-1 .528-1 1.223v4.365c0 .7.287 1.223 1 1.223s1-.527 1-1.223Zm5.616 6.512V15.56c0-.7-.287-1.223-1-1.223s-1 .528-1 1.223v6.512h-1.14v-6.644a2.14 2.14 0 1 1 4.279 0v6.644Z"/><path data-name="Path 13871" d="m133.919 19.638 5.345-5.781v-1.922h-25.968v4.16h5.55l-5.55 5.931v1.9h25.968v-4.288Zm-8.158 3.5v-3.5h-5.346l6.383-6.9V16.1h5.55Z" fill="#ff0c00"/><path data-name="Path 13872" d="m107.223 14.217-2.675-2.784a6.418 6.418 0 1 0 0 12.834l2.675-2.644v2.3h4.719V11.935h-4.719Zm-2.08 6.121a2.418 2.418 0 1 1 2.418-2.418 2.408 2.408 0 0 1-2.418 2.418" fill="#ff0c00"/><path data-name="Path 13873" d="M92.258 8.82h-4.073v3.114h-2.209v4.16h2.209v3.957c0 1.972.944 3.874 3.813 3.874h5.241v-4.291h-4.984v-3.539h4.984v-4.161h-4.984Z" fill="#ff0c00"/></g></g><g data-name="eMAG Logo RGB"><path data-name="Path 13875" d="M51.189 6.393v3.151h2.538v1.48a2.415 2.415 0 0 1-.677.254 4.9 4.9 0 0 1-1.016.084 3.861 3.861 0 0 1-1.427-.254 3.193 3.193 0 0 1-1.11-.719 3.306 3.306 0 0 1-.729-1.121 3.8 3.8 0 0 1-.268-1.436v-.043a3.882 3.882 0 0 1 .243-1.4 3.27 3.27 0 0 1 .688-1.1 3.194 3.194 0 0 1 1.058-.729 3.322 3.322 0 0 1 1.334-.26 4.425 4.425 0 0 1 1.734.338 6.169 6.169 0 0 1 1.543.952l2.77-3.341A9.061 9.061 0 0 0 55.132.6a9.534 9.534 0 0 0-3.457-.593 8.873 8.873 0 0 0-3.246.581 7.954 7.954 0 0 0-2.591 1.619 7.322 7.322 0 0 0-1.712 2.453 7.51 7.51 0 0 0-.6 2.676L40.544.218h-4.906l-4.227 10.1v-10h-5.16l-3.172 5.2L19.907.324h-5.16v3.311a7.11 7.11 0 0 0-.864-1.223 6.923 6.923 0 0 0-2.46-1.758A8.717 8.717 0 0 0 7.9 0a8.254 8.254 0 0 0-3.181.6 7.679 7.679 0 0 0-2.5 1.649A7.384 7.384 0 0 0 .579 4.7 7.822 7.822 0 0 0 0 7.713v.055A7.7 7.7 0 0 0 .622 10.9a6.92 6.92 0 0 0 1.738 2.413 8.065 8.065 0 0 0 2.65 1.553 9.832 9.832 0 0 0 3.387.559 9.026 9.026 0 0 0 4.01-.817 8.683 8.683 0 0 0 1.493-.936l-2.486-3a4.927 4.927 0 0 1-.918.527 4.544 4.544 0 0 1-1.81.354 3.8 3.8 0 0 1-2.186-.6 2.874 2.874 0 0 1-1.081-1.442h9.328v5.616h4.821V7.789l3.415 5.266h.084l3.415-5.266v7.338h8.2l.761-1.988h5.181l.783 1.988h5.371l-.7-1.67a8.039 8.039 0 0 0 2.493 1.437 9.422 9.422 0 0 0 3.246.55 10.525 10.525 0 0 0 3.68-.611 9.84 9.84 0 0 0 2.855-1.6v-6.84Zm-45.953-.02a3.671 3.671 0 0 1 .9-1.834 2.377 2.377 0 0 1 1.8-.723 2.512 2.512 0 0 1 1.853.723 3.135 3.135 0 0 1 .851 1.834Zm31.459 3.256 1.354-3.595L39.4 9.629Z" transform="translate(10.661 9.386)" fill="url(#c)"/></g></g></svg>