<svg xmlns="http://www.w3.org/2000/svg" xmlns:xlink="http://www.w3.org/1999/xlink" width="367.825" height="316.82" viewBox="0 0 367.825 316.82">
  <defs>
    <clipPath id="clip-path">
      <path id="Path_10812" data-name="Path 10812" d="M189.157,196.4a5.959,5.959,0,0,1,4.263-2.285,6.3,6.3,0,0,1,4.809,1.277,7.814,7.814,0,0,1,2.619,4.307l-13.43,1.491a9.136,9.136,0,0,1,1.739-4.79m79.737-5.093,4.364,8.526-6.729.747Zm32.217-18.69a22.219,22.219,0,0,0-7.9,2.331,19.913,19.913,0,0,0-5.995,4.729,18.227,18.227,0,0,0-3.582,6.548,18.656,18.656,0,0,0-.768,6.794l-9.37-16.794-12.2,1.353-7.731,26.191-2.746-24.757-12.83,1.423-6.46,13.753-9.313-12-12.826,1.423.909,8.209a17.7,17.7,0,0,0-2.485-2.793,17.316,17.316,0,0,0-6.6-3.674,21.894,21.894,0,0,0-8.923-.651,20.74,20.74,0,0,0-7.752,2.364,19.216,19.216,0,0,0-5.773,4.773,18.388,18.388,0,0,0-3.393,6.526,19.365,19.365,0,0,0-.612,7.617v.134a19.135,19.135,0,0,0,2.4,7.589,17.291,17.291,0,0,0,4.984,5.5,20.218,20.218,0,0,0,7.013,3.114,24.688,24.688,0,0,0,8.573.447,22.666,22.666,0,0,0,9.745-3.128,21.825,21.825,0,0,0,3.456-2.733l-7-6.74a12.475,12.475,0,0,1-2.139,1.561,11.427,11.427,0,0,1-4.405,1.375,9.543,9.543,0,0,1-5.6-.88,7.154,7.154,0,0,1-3.084-3.274l23.189-2.572,1.542,13.907,11.986-1.328L223.4,200.779l9.934,12.1.208-.022,7.046-13.975,2.015,18.187L263,214.8l1.343-5.129,12.884-1.429,2.492,4.706,13.35-1.48-2.183-3.943a20.112,20.112,0,0,0,6.595,2.873,23.625,23.625,0,0,0,8.221.47,26.41,26.41,0,0,0,8.978-2.547,24.645,24.645,0,0,0,6.658-4.758l-1.878-16.926-17.823,1.972.866,7.8,6.307-.7.408,3.667a6.052,6.052,0,0,1-1.612.814,12.21,12.21,0,0,1-2.5.487,9.65,9.65,0,0,1-3.615-.232,7.992,7.992,0,0,1-2.957-1.477,8.265,8.265,0,0,1-2.121-2.575,9.45,9.45,0,0,1-1.052-3.492V192.8a9.649,9.649,0,0,1,.218-3.525,8.177,8.177,0,0,1,1.409-2.91,8,8,0,0,1,2.426-2.1,8.337,8.337,0,0,1,3.237-1.022,11.057,11.057,0,0,1,4.405.363,15.371,15.371,0,0,1,4.1,1.931l5.97-9.04a22.682,22.682,0,0,0-7.276-3.327,23.845,23.845,0,0,0-8.759-.513" transform="translate(-174.62 -172.467)" fill="none"/>
    </clipPath>
    <linearGradient id="linear-gradient" x1="0.017" y1="0.528" x2="0.976" y2="0.449" gradientUnits="objectBoundingBox">
      <stop offset="0" stop-color="#ff1d25"/>
      <stop offset="0.053" stop-color="#ff1d25"/>
      <stop offset="0.35" stop-color="#a0328c"/>
      <stop offset="0.446" stop-color="#7040a4"/>
      <stop offset="0.547" stop-color="#4359c7"/>
      <stop offset="0.704" stop-color="#0082e6"/>
      <stop offset="1" stop-color="#0082e6"/>
    </linearGradient>
  </defs>
  <g id="Group_40471" data-name="Group 40471" transform="translate(-2770.998 -8446.623)">
    <path id="Path_10797" data-name="Path 10797" d="M310.976,158.41c0,87.487-69.614,158.41-155.488,158.41S0,245.9,0,158.41,69.614,0,155.488,0,310.976,70.923,310.976,158.41" transform="translate(2770.998 8446.623)" fill="#7f7f7f" opacity="0.1"/>
    <g id="Group_29162" data-name="Group 29162" transform="translate(2796.769 8463.42)">
      <path id="Subtraction_737" data-name="Subtraction 737" d="M0,259.95H0c0-28.681,0-65.974,0-105.013C0,134.02,0,113.73,0,94.628,0,76.179,0,59.609,0,45.38s0-25.4,0-33.2C0,4.1,0,0,0,0S0,4.1,0,12.176c0,7.8,0,18.975,0,33.2s0,30.8,0,49.248c0,19.1,0,39.392,0,60.308,0,39.038,0,76.333,0,105.013Z" transform="translate(0 0.002)" fill="#7f7f7f" opacity="0.1"/>
      <g id="Group_40452" data-name="Group 40452" transform="translate(34.185 0)">
        <path id="Path_10794" data-name="Path 10794" d="M.581,10.85h0a1.961,1.961,0,0,1,0-2.783L8.11.575a1.986,1.986,0,0,1,2.8,0,1.961,1.961,0,0,1,0,2.784L3.379,10.853a1.987,1.987,0,0,1-2.8,0" transform="translate(277.045 8.957) rotate(-11)" fill="#0082e6"/>
        <path id="Path_10795" data-name="Path 10795" d="M1.993,14.548h0A1.982,1.982,0,0,1,.012,12.577L0,1.968a1.98,1.98,0,0,1,3.961,0l.012,10.607A1.969,1.969,0,0,1,2,14.545" transform="translate(251.042 0.758) rotate(-11)" fill="#0082e6"/>
        <path id="Path_10796" data-name="Path 10796" d="M0,1.966H0A1.971,1.971,0,0,1,1.977,0L12.641.012a1.97,1.97,0,1,1,0,3.94L1.981,3.94A1.981,1.981,0,0,1,0,1.966Z" transform="translate(292.76 37.787) rotate(-11)" fill="#0082e6"/>
        <path id="Subtraction_736" data-name="Subtraction 736" d="M111.034,210.38H41.562A150.062,150.062,0,0,1,24.737,197.33,148.933,148.933,0,0,1,0,161.617a99.816,99.816,0,0,1,5.673-27.242A68.625,68.625,0,0,1,20.4,110.649c.119.079.237.163.355.248s.208.15.313.22L13.463,44.472a17.772,17.772,0,0,1,3.821-13.153,17.981,17.981,0,0,1,12.034-6.655l2.02-.228L247.808,0c14.515,20.3,13.649,43.634,12.731,68.344-.218,5.869-.443,11.939-.45,17.968h4.677c0,2.874.027,5.588.049,8.212.1,12.076.178,21.61-1.638,30.848-1.924,9.787-5.935,18.824-13,29.3L113.712,170.89c.366,8.388-.737,24.627-2.678,39.488Z" transform="translate(11.034 49.601)" fill="#d8dfea"/>
        <path id="Subtraction_735" data-name="Subtraction 735" d="M69.322,66.635H11.011C7.23,64.108,3.526,61.38,0,58.526c4.074-16.306,10.91-31.2,19.246-41.947C27.541,5.888,36.768,0,45.227,0a17.93,17.93,0,0,1,4,.449c8.233,1.885,14.789,9.684,18.461,21.961,3.637,12.16,4.218,27.865,1.637,44.222Z" transform="translate(41.601 193.347)" fill="#eaae9a"/>
        <path id="Subtraction_734" data-name="Subtraction 734" d="M81.9,109.4H.516c-.627-15.647-.995-38.483.793-58.434A99.815,99.815,0,0,1,6.981,23.724,68.627,68.627,0,0,1,21.709,0,103.96,103.96,0,0,1,45.365,22.021a164.611,164.611,0,0,1,18.394,28.8C73.628,70.267,80.409,92.163,81.9,109.4Z" transform="translate(0 150.581)" fill="#f7bfad"/>
        <path id="Path_10801" data-name="Path 10801" d="M35.605,161.274c-2.211,14.6-1.9,48.145,1.226,59.972s8.905,11.991,11.676,10.018,12.348-16.7,12.348-16.7Z" transform="translate(-13.178 -10.697)" fill="#eaae9a"/>
        <path id="Path_10802" data-name="Path 10802" d="M288.779,220.9,64.935,245.921a18.14,18.14,0,0,1-19.984-15.967L30.278,98.529A18.138,18.138,0,0,1,46.246,78.545L270.09,53.524a18.138,18.138,0,0,1,19.984,15.967l14.685,131.43A18.138,18.138,0,0,1,288.792,220.9" transform="translate(-13.262 -4.955)" fill="#c6d3e0"/>
        <path id="Path_10803" data-name="Path 10803" d="M281.954,221.661,62.964,246.133a17.961,17.961,0,0,1-19.782-15.8L28.454,98.534a17.961,17.961,0,0,1,15.8-19.782L263.25,54.279a17.961,17.961,0,0,1,19.782,15.806L297.76,201.869a17.961,17.961,0,0,1-15.806,19.782" transform="translate(-13.314 -12.535)" fill="#fff"/>
        <path id="Path_10804" data-name="Path 10804" d="M89.627,85.141c23.287-9.8,12.132,44.1,36.207,49.6l-4.343,2.188c-25.269-2.438-23.8-52.3-47.171-43.932Z" transform="translate(-12.256 -12.019)" fill="#0082e6"/>
        <path id="Path_10805" data-name="Path 10805" d="M123.915,136.368c-41.473-2.234-47.481-44.482-34.146-51.254L74.463,92.965c-18.59,9.486,5.4,49.026,47.171,43.932Z" transform="translate(-12.394 -11.999)" fill="#4aa1ff"/>
        <path id="Path_10806" data-name="Path 10806" d="M148.143,78c-24.96-3.921-1.176,45.726-23.225,56.845l4.743,1.082c23.94-8.44,10.531-56.486,35.23-53.982Z" transform="translate(-11.094 -12.125)" fill="#0082e6"/>
        <path id="Path_10807" data-name="Path 10807" d="M127.263,135.959c39.724-12.137,35.4-54.589,20.824-57.96l16.748,3.944c20.324,4.74,6.543,48.889-35.231,53.982Z" transform="translate(-11.032 -12.122)" fill="#4aa1ff"/>
        <path id="Path_10808" data-name="Path 10808" d="M135.211,133.484a4.629,4.629,0,0,1-3.531-5.285c.1-1.916-14.569-.127-13.994,1.707a4.852,4.852,0,0,1-2.074,6.216c-3.374,1.552,2.893,2.379,10.483,1.453s12.776-3.4,9.127-4.094" transform="translate(-11.319 -11.278)" fill="#4aa1ff"/>
        <rect id="Rectangle_27695" data-name="Rectangle 27695" width="94.699" height="99.375" transform="translate(88.559 130.081) rotate(-6.947)" fill="#f2f5f9"/>
        <rect id="Rectangle_27696" data-name="Rectangle 27696" width="40.334" height="99.375" transform="translate(52.377 134.47) rotate(-6.954)" fill="#c6d3e0"/>
        <rect id="Rectangle_27697" data-name="Rectangle 27697" width="94.699" height="14.377" transform="translate(90.434 145.31) rotate(-6.947)" fill="#c6d3e0"/>
        <rect id="Rectangle_27698" data-name="Rectangle 27698" width="40.334" height="14.377" transform="translate(54.248 149.698) rotate(-6.954)" fill="#90aabf"/>
        <rect id="Rectangle_27700" data-name="Rectangle 27700" width="17.816" height="8.865" transform="matrix(0.993, -0.121, 0.121, 0.993, 132.545, 145.775)" fill="#0082e6"/>
        <rect id="Rectangle_27701" data-name="Rectangle 27701" width="12.123" height="80.598" transform="translate(67.049 151.543) rotate(-6.947)" fill="#4aa1ff"/>
        <rect id="Rectangle_27702" data-name="Rectangle 27702" width="12.123" height="8.599" transform="translate(67.343 153.949) rotate(-6.947)" fill="#0082e6"/>
        <rect id="Rectangle_27703" data-name="Rectangle 27703" width="100.058" height="28.224" transform="translate(88.062 126.033) rotate(-6.954)" fill="#f2f5f9"/>
        <rect id="Rectangle_27704" data-name="Rectangle 27704" width="44.271" height="28.224" transform="translate(47.958 130.898) rotate(-6.954)" fill="#c6d3e0"/>
        <rect id="Rectangle_27705" data-name="Rectangle 27705" width="17.816" height="28.234" transform="matrix(0.993, -0.121, 0.121, 0.993, 133.143, 120.582)" fill="#4aa1ff"/>
        <rect id="Rectangle_27706" data-name="Rectangle 27706" width="12.123" height="28.234" transform="translate(60.508 129.388) rotate(-6.947)" fill="#4aa1ff"/>
        <path id="Path_10809" data-name="Path 10809" d="M136.268,224.406c12.91-11.164,11.7-28.081.074-34.566h0a34.345,34.345,0,0,0-9.7-3.116c-9.819-6.575-15.615,3.741-23.408,9.414-18.205,13.282-49.792,31.767-60.1,33.841h0c-.789.157.651,4.941,4.226,7.778-.549-.112-1.115-.226-1.687-.346A18.049,18.049,0,0,0,62.5,245.125l57.712-6.435c5.315-4.8,10.628-9.6,16.042-14.285" transform="translate(-12.978 -10.3)" fill="#c6d3e0"/>
        <path id="Path_10810" data-name="Path 10810" d="M37.311,222c9.72-1.959,39.507-19.391,56.674-31.917,7.613-5.557,22.075-12.515,31.319-5.071a35.969,35.969,0,0,0-10.34,2.182c-22.06,10.537-40.609,26.462-60.979,39.6-2.7,1.741-5.142,4.79-8.267,4.436-6.554-.741-9.414-9.026-8.4-9.226" transform="translate(-13.105 -10.346)" fill="#eaae9a"/>
        <path id="Path_10811" data-name="Path 10811" d="M125.488,184.095a35.964,35.964,0,0,0-10.343,2.182c-22.06,10.537-40.609,26.462-60.979,39.6-2.7,1.74-5.295,5.463-8.264,4.435-3.427-1.18-13.877-2.114-14.6-5.15,0-.088-3.865,3.2-3.875,3.109-1.018.374-1.9.763-2.72,1.125,12.388,18.526,28.38,27.521,47.491,38.985,8.554-3.37,15.293-4.11,17.511-13.032l.763-1.832c-.394-4.547,2.117-7.659,5.567-10.659,9.9-8.6,19.46-17.594,29.378-26.177,12.175-10.528,11.027-26.485.069-32.6" transform="translate(-13.385 -10.315)" fill="#f7bfad"/>
        <g id="Group_30438" data-name="Group 30438" transform="translate(127.01 151.626)">
          <g id="Group_30437" data-name="Group 30437" transform="translate(0 0)" clip-path="url(#clip-path)">
            <rect id="Rectangle_27708" data-name="Rectangle 27708" width="151.583" height="66.546" transform="translate(-5.703 0.576) rotate(-6.329)" fill="url(#linear-gradient)"/>
          </g>
        </g>
        <path id="Path_10813" data-name="Path 10813" d="M249.218,83.393l1.136,2.393a4.206,4.206,0,0,0,2.834,2.29l2.59.612A.695.695,0,0,1,255.913,90l-2.407,1.128a4.19,4.19,0,0,0-2.3,2.818l-.615,2.575a.7.7,0,0,1-1.313.134l-1.136-2.393a4.2,4.2,0,0,0-2.834-2.276l-2.59-.612a.695.695,0,0,1-.135-1.305l2.408-1.129a4.193,4.193,0,0,0,2.3-2.818l.615-2.575a.7.7,0,0,1,1.314-.134" transform="translate(-8.391 -12.024)" fill="#ff3e4c"/>
        <path id="Path_10814" data-name="Path 10814" d="M55.875,123.946l.572,1.207a2.121,2.121,0,0,0,1.43,1.153l1.306.309a.351.351,0,0,1,.069.66l-1.214.569a2.111,2.111,0,0,0-1.16,1.422l-.31,1.3a.352.352,0,0,1-.662.069l-.572-1.207a2.12,2.12,0,0,0-1.43-1.154l-1.305-.308a.351.351,0,0,1-.069-.66l1.214-.57a2.111,2.111,0,0,0,1.16-1.421l.31-1.3a.354.354,0,0,1,.664-.068" transform="translate(-12.753 -11.34)" fill="#ff3e4c"/>
        <path id="Path_10815" data-name="Path 10815" d="M237.154,140.445l.574,1.207a2.119,2.119,0,0,0,1.429,1.153l1.306.309a.35.35,0,0,1,.068.66l-1.214.569a2.12,2.12,0,0,0-1.161,1.422l-.309,1.3a.352.352,0,0,1-.663.068l-.572-1.207a2.12,2.12,0,0,0-1.431-1.154l-1.3-.309a.35.35,0,0,1-.068-.66l1.214-.569a2.108,2.108,0,0,0,1.16-1.421l.31-1.3a.354.354,0,0,1,.664-.068" transform="translate(-8.586 -11.057)" fill="#4aa1ff"/>
      </g>
    </g>
  </g>
</svg>
